<?xml version="1.0" encoding="utf-8"?>
<!-- Generator: Adobe Illustrator 21.1.0, SVG Export Plug-In . SVG Version: 6.00 Build 0)  -->
<svg version="1.1" id="Layer_1" xmlns="http://www.w3.org/2000/svg" xmlns:xlink="http://www.w3.org/1999/xlink" x="0px" y="0px"
	 viewBox="0 0 612 792" style="enable-background:new 0 0 612 792;" xml:space="preserve">
<style type="text/css">
	.st0{fill:#4B9CD3;}
	.st1{fill:none;stroke:#4B9CD3;stroke-width:0.8;stroke-miterlimit:10;}
</style>
<g>
	<path class="st0" d="M208.7,383.7h0.1C208.8,383.7,208.8,383.7,208.7,383.7C208.8,383.7,208.7,383.7,208.7,383.7z"/>
	<path class="st0" d="M208.5,384.3C208.5,384.3,208.5,384.3,208.5,384.3l0-0.5l0,0l0,0c0,0,0,0,0,0V384.3z"/>
	<rect x="208.5" y="383.8" class="st0" width="0" height="0.5"/>
	<path class="st0" d="M204.2,383.5C204.2,383.5,204.2,383.5,204.2,383.5L204.2,383.5C204.2,383.5,204.2,383.5,204.2,383.5z"/>
	<circle class="st0" cx="208.5" cy="384.3" r="0"/>
</g>
<g>
	<path class="st0" d="M200,380.2c0.1,0.1,0.2,0.1,0.2,0.1c8.5-0.3,13.3,2.9,13.7,4.2l3.4-0.1l1.1-2.3c0.1-0.2,0-0.5,0-0.5
		c-1-1.1-9.5-3.6-19.8-3.6c-11,0-17.9,2.2-19.4,3.2c0,0-0.4,0.2-0.4,0.5c0,0.1,0.2,0.6,0.2,0.6l0.3,0.6c0.1,0.2,0.2,0.2,0.4,0
		c0,0,0.2-0.1,0.2-0.2c0-0.1-0.1-0.4-0.1-0.4c-0.2-0.4,0.1-0.5,0.1-0.5l0.6-0.3c0.3-0.1,0.3,0.1,0.4,0.3c0,0,0.1,0.3,0.2,0.4
		c0.2,0.1,0.7-0.2,2.1-0.6c0.1,0,0.2,0,0.4-0.1c0.1-0.1,0-0.6,0-0.6c-0.1-0.2-0.2-0.5,0.4-0.6l0.9-0.2c0.4-0.1,0.5,0.1,0.5,0.4
		c0,0,0,0.4,0.1,0.5c0.1,0.2,0.3-0.1,3.2-0.4c0,0,0.4,0,0.5-0.2c0.1-0.2,0-0.5,0-0.5c0-0.3-0.2-0.6,0.5-0.6l1.2-0.1
		c0.9-0.2,0.8,0.2,0.8,0.5c0,0,0,0.4,0.1,0.4c0.1,0.1,0.4,0.1,0.4,0.1c1.6-0.2,2.5-0.2,4.2-0.2c0,0,0.2,0,0.3-0.1
		c0.1-0.1,0.1-0.2,0.1-0.2c0-0.2,0-0.5,0.1-0.6c0.1-0.1,0.4-0.1,0.6-0.1l1.4,0c0.2,0,0.7-0.1,0.8,0.1c0.1,0.1,0.1,0.7,0.1,0.7
		S200,380.1,200,380.2z"/>
	<path class="st0" d="M198.6,366.5c-8.3,0-13.3,2.7-16.6,5.8c0,0-0.1,0.1-0.1,0.1c-0.1,0.2-0.1,0.4,0.3,0.3c7.1-3,14.8-1.1,17.3,1.7
		c0.1,0.1,0,0.2-0.1,0.2c-2.5,0-4.6-0.1-9.2,0.5c-2.5,0.4-4.7,0.7-6.6,1.2c-3.1,0.8-5.3,1.8-6.5,2.6c-0.4,0.2-0.5,0.4-0.6,0.6
		c-0.1,0.4-0.1,0.4-0.2,0.7c-0.2,0.5-0.2,0.8-0.3,1c-0.1,0.3,0.3,0.2,0.5,0c0.4-0.4,1.4-1.3,2.9-2c1.5-0.7,4-1.5,6.8-2
		c3.6-0.7,8.1-1.1,12.1-1.1c4.7,0,8.9,0.5,12.4,1.2c3.6,0.7,6.4,1.7,8.2,2.6c0.9,0.4,1.3,0.8,1.9,1.3c0.5,0.5,0.5,0.1,0.5-0.1
		c0,0-0.1-0.6-0.8-2C218.1,374.8,211.9,366.5,198.6,366.5"/>
	<g>
		<path class="st0" d="M199.1,427.7c-16.4,0-24.6-3.8-24.6-6h0l0-2.1c0,0,0-0.1,0.1-0.1c0,0,0.1,0,0.1,0c7.1,5.4,23.9,6.1,31.2,3.7
			c0.2-0.1,0.3-0.2,0.3-0.2c0,0-0.1-0.1-0.1-0.1c-0.2-0.1-0.3-0.1-0.5,0c-0.1,0-0.2,0-0.3,0c-11.5,1.2-23.6-1.1-27.7-4
			c0,0-0.1-0.1-0.1-0.1l0-2.5c0-0.1,0-0.1,0.1-0.1s0.1,0,0.1,0c0.5,0.5,2.6,1.5,6.6,2.3c3,0.6,7.9,1.4,14.4,1.4c9.8,0,18-1.8,20.2-3
			c0.5-0.3,0.8-0.5,0.8-0.6c0-0.1,0.1-0.1,0.1-0.1c0.1,0,0.1,0.1,0.1,0.1l0.1,1.5c2.5,0,3.4,0.1,3.5,0.7c0,0,0,0.1,0,0.2
			c0,0,0,0,0,0l0.1,2.9C223.7,423.8,215,427.7,199.1,427.7z"/>
	</g>
	<path class="st0" d="M208.8,382.5l-4.5,0c-0.2,0-0.3,0.1-0.3,0.3v0.5c0,0.2,0.1,0.3,0.3,0.3h1.4c0.1,0,0.2,0.1,0.2,0.1
		c0.1,0.1-0.2,0.3-0.3,0.3l-0.7,0.4c-0.1,0.1-0.2,0.2-0.2,0.4l0,32.3c0.1,0.6,1,0.6,2,0.6c0.8,0,1.8,0,1.9-0.6c0,0,0-30.8,0-33.4
		c0-0.1,0.1-0.2,0.1-0.2c0,0,0.2,0,0.2,0c0.2,0,0.3-0.1,0.3-0.3v-0.5C209.1,382.6,209,382.5,208.8,382.5z"/>
	<g>
		<path class="st0" d="M198.8,416c-1.4,0-2.8,0-2.9-0.1c-0.2-0.1-0.2-0.9-0.1-1.5c0,0,0-0.1,0.1-0.1l0.5-0.2v-6c0,0,0-0.1,0-0.3
			c0.1-0.2,0.2-0.3,0.3-0.3c0.4-0.3,1.3-0.9,1.8-1.2c0.1,0,0.1-0.1,0.1-0.1c0,0,0-0.1,0-0.1c0-0.1-0.2-0.1-0.3-0.1
			c-0.1,0-0.1,0-0.1,0c-0.1,0-0.2,0-1.4,0c0,0-0.2,0-0.4-0.1c-0.1,0-0.2-0.1-0.2-0.1c0,0,0,0,0,0l-0.4-0.9h-0.3c0,0-0.1,0-0.1,0
			s0-0.1,0-0.1l0-0.2c0-0.1,0.1-0.1,0.1-0.1h6.3c0.1,0,0.1,0.1,0.1,0.1l0,0.2c0,0,0,0.1,0,0.1s-0.1,0-0.1,0h-0.2l-0.6,1.2v8l0.5,0.2
			c0,0,0.1,0.1,0.1,0.1c0.1,0.9,0.1,1.4-0.1,1.5C201.4,415.9,200.1,416,198.8,416z"/>
	</g>
	<path class="st0" d="M217.6,384.3l-4.5,0c-0.2,0-0.3,0.1-0.3,0.3v0.5c0,0.2,0.1,0.3,0.3,0.3h1.4c0.1,0,0.2,0.1,0.2,0.1
		c0.1,0.1-0.2,0.3-0.3,0.3l-0.7,0.4c-0.1,0.1-0.2,0.2-0.2,0.4l0,29.2c0.1,0.6,1,0.6,2,0.6c0.8,0,1.8,0,1.9-0.6c0,0,0-27.6,0-30.3
		c0-0.1,0.1-0.2,0.1-0.2c0,0,0.2,0,0.2,0c0.2,0,0.3-0.1,0.3-0.3v-0.5C217.9,384.4,217.8,384.3,217.6,384.3z"/>
	<path class="st0" d="M192.9,382.5l-4.5,0c-0.2,0-0.3,0.1-0.3,0.3v0.5c0,0.2,0.1,0.3,0.3,0.3h1.4c0.1,0,0.2,0.1,0.2,0.1
		c0.1,0.1-0.2,0.3-0.3,0.3l-0.7,0.4c-0.1,0.1-0.2,0.2-0.2,0.4l0,32.3c0.1,0.6,1,0.6,2,0.6c0.8,0,1.8,0,1.9-0.6c0,0,0-30.8,0-33.4
		c0-0.1,0.1-0.2,0.1-0.2c0,0,0.2,0,0.2,0c0.2,0,0.3-0.1,0.3-0.3v-0.5C193.2,382.6,193.1,382.5,192.9,382.5z"/>
	<path class="st0" d="M184.1,384.4l-4.5,0c-0.2,0-0.3,0.1-0.3,0.3v0.5c0,0.2,0.1,0.3,0.3,0.3l1.4,0c0.1,0,0.2,0.1,0.2,0.1
		c0.1,0.1-0.2,0.3-0.3,0.3l-0.7,0.4c-0.1,0.1-0.2,0.2-0.2,0.4l0,29.2c0.1,0.6,1,0.6,2,0.6c0.8,0,1.8-0.1,1.9-0.6c0,0,0-27.6,0-30.3
		c0-0.1,0.1-0.2,0.1-0.2c0,0,0.2,0,0.2,0c0.2,0,0.3-0.1,0.3-0.3v-0.5C184.4,384.5,184.3,384.4,184.1,384.4z"/>
</g>


</svg>
